Coordinates
version=1
nRows=4
nColumns=40
inDegrees=yes

Units are S.I. units (second, meters, Newtons, ...)
If the header above contains a line with 'inDegrees', this indicates whether rotational values are in degrees (yes) or radians (no).

endheader
time	pelvis_tilt	pelvis_list	pelvis_rotation	pelvis_tx	pelvis_ty	pelvis_tz	hip_flexion_r	hip_adduction_r	hip_rotation_r	knee_angle_r	knee_angle_r_beta	ankle_angle_r	subtalar_angle_r	mtp_angle_r	hip_flexion_l	hip_adduction_l	hip_rotation_l	knee_angle_l	knee_angle_l_beta	ankle_angle_l	subtalar_angle_l	mtp_angle_l	lumbar_extension	lumbar_bending	lumbar_rotation	arm_flex_r	arm_add_r	arm_rot_r	elbow_flex_r	pro_sup_r	wrist_flex_r	wrist_dev_r	arm_flex_l	arm_add_l	arm_rot_l	elbow_flex_l	pro_sup_l	wrist_flex_l	wrist_dev_l
      5.00000000000000000000	     44.37849164859961348384	     -1.49740829234504291279	   -175.21572205378720354929	      0.38031786531399069951	      0.67472007601413308553	     -0.62346725369247413262	     98.89446878661833295610	    -14.66991076107789027105	      2.66402425363222583599	     68.69794248310434170435	      1.19900528567585973327	     18.54743988995370429507	      0.00000000000000000000	      0.00000000000000000000	     96.85739572696780896877	     -5.88181715164833729403	     -3.30057249748057124350	     64.61363029607336727622	      1.12772059033283889029	     13.09275879833166378319	      0.00000000000000000000	      0.00000000000000000000	    -31.66849395690741530984	      2.53542070604464919725	     -2.04825684031876154023	     67.88735413345911240413	     -8.97164591863417193451	     42.38852207517939518766	      1.13820082182314452623	     86.13635213360919351544	      0.00000000000000000000	      0.00000000000000000000	     59.55330404582906567157	     -3.61291803561742952411	     31.60440051900719282685	      0.73419688159291152107	      3.06726789200350502540	      0.00000000000000000000	      0.00000000000000000000
      5.00499999999999989342	     44.47747184252215646438	     -1.51377207820345183187	   -175.27123457718093391122	      0.38064298547925079497	      0.67639252270457606020	     -0.62352687203017398421	     98.72029415657691231445	    -14.57314165727215105051	      2.62710646312697271298	     68.20691747089250611680	      1.19043528250311791972	     18.33037465788224551488	      0.00000000000000000000	      0.00000000000000000000	     96.65586225277182563786	     -5.89902802929474034954	     -3.34594824011042213385	     64.12176290602570816191	      1.11913588489331594644	     12.97226313324364355140	      0.00000000000000000000	      0.00000000000000000000	    -31.70779219812950699975	      2.47195465902639055500	     -2.03288335689491983516	     67.94680171192379702916	     -8.97908553899791073150	     42.88793246868055319965	      1.13751763142729611644	     86.25248734898097779933	      0.00000000000000000000	      0.00000000000000000000	     59.71708201719469144564	     -3.63302337750843307163	     31.07603851956159601855	      0.73301517809278082805	      3.16348131652305175621	      0.00000000000000000000	      0.00000000000000000000
      5.00999999999999978684	     44.64833681752052285674	     -1.38675467400753604785	   -175.20922425600335259332	      0.38111035772736112648	      0.67800758069684086138	     -0.62339514855894861967	     98.60100079597006583754	    -14.60460681719616182761	      2.48436476130896410908	     67.73840728712175973669	      1.18225823721719458526	     18.08375017291854902624	      0.00000000000000000000	      0.00000000000000000000	     96.52703318994349501736	     -5.93109920077036356645	     -3.46373589863547470813	     63.56749725608295875645	      1.10946212437110869331	     12.74585374081357436182	      0.00000000000000000000	      0.00000000000000000000	    -31.64949162921901049117	      2.60581132675823923250	     -2.02926072348441000059	     68.01278830899123306608	     -8.96819141978622269562	     43.00620724216523882433	      1.13195143345376925126	     86.28165401675610723942	      0.00000000000000000000	      0.00000000000000000000	     59.92317450836861780772	     -3.60478236052739120510	     30.05689630117402799669	      0.73425750591616600893	      3.18297181455756827972	      0.00000000000000000000	      0.00000000000000000000
      5.01499999999999968026	     44.81653365477444594944	     -1.53945566417147872151	   -175.08847313946958479391	      0.38156682391413998534	      0.67969512273034959904	     -0.62282273296637435944	     98.55562522267862846093	    -14.76207095017793413660	      2.55708273337791158752	     67.24415933773325093625	      1.17363198317913486335	     17.84369912366968691231	      0.00000000000000000000	      0.00000000000000000000	     96.33436981020105349671	     -5.87813150993466670968	     -3.96866282817423288165	     62.98045672459480215366	      1.09921633425398290740	     12.44449192223946454305	      0.00000000000000000000	      0.00000000000000000000	    -31.60386371892305135134	      2.53419800702559472327	     -2.23473653180914455518	     68.05092103223861954575	     -8.95180577678860522894	     43.23654438056728110951	      1.12315670225624097966	     86.31994906295842895361	      0.00000000000000000000	      0.00000000000000000000	     60.05600644528977483105	     -3.60308674663847616770	     29.47481122537679709694	      0.74017187662841965601	      3.14548505386522903038	      0.00000000000000000000	      0.00000000000000000000
